/* XPM */
static char *_520342511113[] = {
/* columns rows colors chars-per-pixel */
"77 140 34 1 ",
"  c #1EB4EB",
". c #24B5EB",
"X c #2AB7EB",
"o c #2EB9EC",
"O c #34BAEC",
"+ c #3EBDEC",
"@ c #41BEED",
"# c #3EC0EE",
"$ c #3FC0F0",
"% c #45C0EE",
"& c #4BC2EE",
"* c #53C5EF",
"= c #59C7EF",
"- c #5CC8EF",
"; c #44C2F1",
": c #4DC4F0",
"> c #54C6F0",
", c #59C7F0",
"< c #56C8F1",
"1 c #5CC9F1",
"2 c #68CCEF",
"3 c #64CBF2",
"4 c #6BCEF2",
"5 c #71CFF2",
"6 c #6ED0F4",
"7 c #74D1F3",
"8 c #7BD3F3",
"9 c #83D6F4",
"0 c #89D7F5",
"q c #87D8F5",
"w c #8BD8F5",
"e c #93DBF6",
"r c #9CDDF6",
"t c None",
/* pixels */
"ttttttttttttttttttttttttttttttttttttttttttttttttttttttttttttttttttttttttttttt",
"ttttttttttttttttttttttttttttttttttttttttttttttttttttttttttttttttttttttttttttt",
"ttttttttttttttttttttttttttttttttttttttttttttttttttttttttttttttttttttttttttttt",
"ttttttttttttttttttttttttttttttttttttttttttttttttttttttttttttttttttttttttttttt",
"ttttttttttttttttttttttttttttttttttttttttttttttttttttttttttttttttttttttttttttt",
"ttttttttttttttttttttttttttttttttttttttttttttttttttttttttttttttttttttttttttttt",
"tttttttttttttttttttttttttttttttttttttttt6>:%&<3:<8ttttttttttttttttttttttttttt",
"ttttttttttttttttttttttttttttttttttttt>&%@+++@+++@+O4ttttttttttttttttttttttttt",
"tttttttttttttttttttttttttttttttttt6>%@++++++@+++++O%+%7tttttttttttttttttttttt",
"ttttttttttttttttttttttttttttttttt*#+++@+++++++++++++++@;ttttttttttttttttttttt",
"ttttttttttttttttttttttttttttttt4@++@+++++@@+++++++@+++++&1ttttttttttttttttttt",
"ttttttttttttttttttttttttttttt7*+++++++++++++++++++++++++++-tttttttttttttttttt",
"tttttttttttttttttttttttttttt3&O+@++++++++++@++++@++@++@++O+%ttttttttttttttttt",
"ttttttttttttttttttttttttttt5%++++++++++++++++++++++++++++@+O*tttttttttttttttt",
"tttttttttttttttttttttttttt=@++++++@+++++++++++@@++@++@++++++o1ttttttttttttttt",
"ttttttttttttttttttttttttt:O++@++++++++++OoO+++OO+++++++++@+++O3tttttttttttttt",
"ttttttttttttttttttttttttwO@++++++++@+o+>>341131%O+@+++++++++++o2ttttttttttttt",
"ttttttttttttttttttttttt9+@+++++@++O+@4tttttttttt,>O+@+++++++++++etttttttttttt",
"ttttttttttttttttttttttt+O@++@++++O%@tttttttttttttt&+++++@+++++@O&tttttttttttt",
"tttttttttttttttttttttt-O@+++++++O>3tttttttttttttttt3@+++++++++++O1ttttttttttt",
"ttttttttttttttttqtttt:O@@++++++O>ttttttttttttttttttt6+++++@++++@+O4tttttttttt",
"ttttttttttttttt+%ttt9o+++++++++3ttttttttttttttttttttt3++++++@+++@O#tttttttttt",
"ttttttttttttttqo9ttt+++++++++O7ttttttttttttttttttttttt-++++++++@++O6ttttttttt",
"tttttttttttttt@7tttO+++++++++:ttttttttttttttttttttttttt=++@+++++++O&ttttttttt",
"ttttttttttttt3Xett7o++++++@+&ttttttttttttttttttttttttttt%+++++++++++1tttttttt",
"ttttttttttttto>tttO++@+++@O&tttttttttttttttttttttttttttt4@++++++@++O1tttttttt",
"tttttttttttt3.8tt>O++++++++tttttttttttttttttttttttttttttt*++++++++@++4ttttttt",
"tttttttttttt&+tt4X@@++@+++3tttttttttttttttttttttttttttttt6+++++@+++++&ttttttt",
"ttttttttttt*O4ttO++++++++Otttttttttttttttttttttttttttttttt*++++++@+++@8tttttt",
"ttttttttttt%%tt8o+++@+++@ttttttttttttttttttttttttttttttttt7%++>>+++@@O=tttttt",
"tttttttttt6O3tt:++++++++,tttttttttttttttttttttttttttttttttt*+o33O@++++@tttttt",
"tttttttttt1X8t2o+@+++++@ttttttttttttttttttttttttttttttttttt3+o37@@++++@7ttttt",
"ttttttttt8@OttO++++@+++3ttttttttttttttttttttttttttttttttttt8@O@4*++++++&ttttt",
"ttttttttt7O&t8o@++++++>ttttttttttttttttttttttttttttttttttttt@+ot0X+++++&ttttt",
"ttttttttt4.wt%++++++++tttttttttttttttttttttttttttttttttttttt-+ott++++++@1tttt",
"tttttttt6O;ttO+++++++&tttttttttttttttttttttttttttttttttttttt5+X8t2O+++++3tttt",
"tttttttt=X3t3O+++++++4tttttttttttttttttttttttttttttttttttttt4@o5t4O+@+++*tttt",
"tttttttt*o94++++@+++:tttttttttttttttttttttttttttttttttttttttt>o=tt@+++++&tttt",
"ttttttt8%+7-O++++++%7tttttttttttttttttttttttttttttttttttttttt4o&tt*+++++@7ttt",
"ttttttt1+O3*++++++O&ttttttttttttttttttttttttttttttttttttttttt3O&tt>O++@++:ttt",
"ttttttt>O&*++++++++-ttttttttttttttttttttttttttttttttttttttttt3+@tt3O+++++;ttt",
"ttttttt*+&++++++++@qttttttttttttttttttttttttttttttttttttttttt3@Ottt.++++O%ttt",
"tttttt4@+++++++++o*tttttttttttttttttttttttttttttttttttttttttt6&X0tt.@+++O%8tt",
"tttttt%O+++++++@++4ttttttttttttttttttttttttttttttttttttttttttt* ettO+++@++4tt",
"tttttt&+@++++++++>tttttttttttttttttttttttttttttttttttttttttttt,.8tt*++@+++1tt",
"ttttt0%++++++@+@O1tttttttttttttttttttttttttttttttttttttttttttt,O3tt3o+++++&tt",
"ttttt4@+++@++++++4tttttttttttttttttttttttttttttttttttttttttttt,+4tt3O+++++@tt",
"ttttt&+++++++++O,ttttttttttttttttttttttttttttttttttttttttttttt*O0tt2O+@+++%tt",
"ttttt&++++++@++O3ttttttttttttttttttttttttttttttttttttttttttttt*Owtt8O++++++tt",
"ttttt&++@+++++++5ttttttttttttttttttttttttttttttttttttttttttttt9.5ttt++++@++tt",
"tttt9@+++++@+++@tttttttttttttttttttttttttttttttttttttttttttttt7 8ttt%++++++;t",
"tttt&++++++++@o2tttttttttttttttttttttttttttttttttttttttttttttt3.8ttt%+@++++;t",
"tttt;+++@+++@+O4tttttttttttttttttttttttttttttttttttttttttttttt>Otttt&+++++@;t",
"tttt@+++++++++@ttttttttttttttttttttttttttttttttttttttttttttttt<+tttt&+++@++>t",
"tttt@++++++++O*ttttttttttttttttttttttttttttttttttttttttttttttt4+tttt+O@@+++1t",
"ttt8@++++++++O4ttttttttttttttttttttttttttttttttttttttttttttttt:&tttt@++++++1t",
"ttt7+++@+++++O5ttttttttttttttttttttttttttttttttttttttttttttttt:1tttt*++++++-t",
"ttt:++++++@++O8ttttttttttttttttttttttttttttttttttttttttttttttt+0tttt*++++++2t",
"ttt>+++++++++O9ttttttttttttttttttttttttttttttttttttttttttttttt=8tttt&++++@+*t",
"ttt>+@+++@++O1tttttttttttttttttttttttttttttttttttttttttttttttt>7tttt5o+++++&t",
"ttt%++++++++o8tttttttttttttttttttttttttttttttttttttttttttttttt:ttttt4O+++++;t",
"ttt++++@+++++5ttttttttttttttttttttttttttttttttttttttttttttttt81ttttt3O+++++%t",
"tt8#++++@++@+7ttttttttttttttttttttttttttttttttttttttttttttttt>3ttttt&++@++O%t",
"tt1+++++++++O2ttttttttttttttttttttttttttttttttttttttttttttttt14ttttt&O+++++1t",
"tt=@++++++++&ttttttttttttttttttttttttttttttttttttttttttttttttttttttt>O++++@1t",
"tt3@@++@+++O,ttttttttttttttttttttttttttttttttttttttttttttttttttttttt++++@++*t",
"tt@++++++++O3ttttttttttttttttttttttttttttttttttttttttttttttttttttttt.+@+++@=t",
"tt++++++++++,tttttttttttttttttttttttttttttttttttttttttttttttttttttttO++++++*t",
"tt++++@++++O1tttttttttttttttttttttttttttttttttttttttttttttttttttttt4O+++++@3t",
"tt;+++++@+@O3tttttttttttttttttttttttttttttttttttttttttttttttttttttt8O@+++++5t",
"tt&++++++++O1tttttttttttttttttttttttttttttttttttttttttttttttttttttt5O+++++@tt",
"tt%+@++++++o9tttttttttttttttttttttttttttttttttttttttttttttttttttttt7o++@++%tt",
"tt$O@++@+++O8tttttttttttttttttttttttttttttttttttttttttttttttttttttt3O+++++@tt",
"tt+O++++++++7tttttttttttttttttttttttttttttttttttttttttttttttttttttt>O@++++@tt",
"tt+++@+++++ottttttttttttttttttttttttttttttttttttttttttttttttttttttt++++++O;tt",
"tt+++++++++Ottttttttttttttttttttttttttttttttttttttttttttttttttttttt@++@+++*tt",
"tt%++++@+++%ttttttttttttttttttttttttttttttttttttttttttttttttttttttt+++++@@qtt",
"tt&+++++@+++tttttttttttttttttttttttttttttttttttttttttttttttttttttt4O+++++@ttt",
"tt&+++++++O%tttttttttttttttttttttttttttttttttttttttttttttttttttttt,O+++++@ttt",
"tt%++@++++@@tttttttttttttttttttttttttttttttttttttttttttttttttttttt;+++@@O@ttt",
"tt@++@++++++tttttttttttttttttttttttttttttttttttttttttttttttttttttt+++++++1ttt",
"ttO+++++@++O6tttttttttttttttttttttttttttttttttttttttttttttttttttt8X@++++@6ttt",
"tt+++++++++O7tttttttttttttttttttttttttttttttttttttttttttttttttttt4O@++++@7ttt",
"tt@++@++++@X8tttttttttttttttttttttttttttttttttttttttttttttttttttt&O+++++@tttt",
"tt:+++++++@.8tttttttttttttttttttttttttttttttttttttttttttttttttttt@++++++;tttt",
"tt>++++@+++X9tttttttttttttttttttttttttttttttttttttttttttttttttttt++++@++3tttt",
"tt1@++++@++X9ttttttttttttttttttttttttttttttttttttttttttttttttttt*O+++++@9tttt",
"tt4@+++++++O7ttttttttttttttttttttttttttttttttttttttttttttttttttt+++++++%ttttt",
"tt7@+@+++++O2tttttttttttttttttttttttttttttttttttttttttttttttttt0O+++++O>ttttt",
"tte+++++@++O-tttttttttttttttttttttttttttttttttttttttttttttttttt3o++++++5ttttt",
"ttt+++@+++++%tttttttttttttttttttttttttttttttttttttttttttttttttt@++@+@+@qttttt",
"ttt+++++++++Ottttttttttttttttttttttttttttttttttttttttttttttttt9O++++@O%tttttt",
"ttt%++++++++O7tttttttttttttttttttttttttttttttttttttttttttttttt1O+++++O*tttttt",
"ttt%+++++++@O4ttttttttttttttttttttttttttttttttttttttttttttttt7O++++@+@8tttttt",
"ttt1++++@+++O,ttttttttttttttttttttttttttttttttttttttttttttttt1O++++++&ttttttt",
"ttt8@++++++++;ttttqtttttttttttttttttttttttttttttttttttttttttt%++++++O*ttttttt",
"tttt%O@@+@++O*ttttt>tttttttttttttttttttttttttttttttttttttttt4O+++++++7ttttttt",
"tttt:++++++++@ttttt>tttttttttttttttttttttttttttttttttttttttt*O@+++++&tttttttt",
"tttt<@++++++@Xwtttt37tttttttttttttttttttttttttttttttttttttt4++++++@O>tttttttt",
"tttt7@+++@++@X7tttt8;tttttttttttttttttttttttttttttttttttttt#O+++++O+5tttttttt",
"ttttt&O@++@+++&ttttt;:tttttttttttttttttttttttttttttttttttt3+@+++@+O=ttttttttt",
"ttttt&+@++++++o8tttt4@tttttttttttttttttttttttttttttttttttt++++++++O7ttttttttt",
"ttttt4++++++++O=ttttt+4tttttttttttttttttttttttttttttttttt=+++++@++%qttttttttt",
"ttttt4%+@++++++@ttttt:&ttttttttttttttttttttttttttttttttt5++++++++O=tttttttttt",
"tttttt>O@+++++++8ttttt+1ttttttttttttttttttttttttttttttt4@+@+++++++4tttttttttt",
"tttttt,++@++++@o3ttttt1+wtttttttttttttttttttttttttttttt@O@++++@+O=ttttttttttt",
"tttttt0@+++++++O:ttttttXOttttttttttttttttttttttttttttt>@++++@+++Otttttttttttt",
"ttttttt%+++@@++++7ttttt1++ttttttttttttttttttttttttttt>+++@+++++O1tttttttttttt",
"ttttttt4@++++++@O>tttttto+>ttttttttttttttttttttttttt7++++++++++o9tttttttttttt",
"tttttttt*+++@++++$tttttt<O+4ttttttttttttttttttttttt3++++++++@++@ttttttttttttt",
"tttttttt3O@+++++@O1tttttt;+O;ttttttttttttttttttttt>%++++@++@++Otttttttttttttt",
"ttttttttt%+++++@++O3tttttt++O:ttttttttttttttttttt1+++++@+++++o5tttttttttttttt",
"ttttttttt>O++++@++O%tttttt3@+O%5ttttttttttttttt1@++++@+++++++%ttttttttttttttt",
"ttttttttt7&++++++@@O1tttttt%+++@&tttttttttttt=*@O@++++++++++O8ttttttttttttttt",
"tttttttttt1X@+++++@O@ttttttt:O+O+&*>4tttt8>;*@o+@++++++++++O*tttttttttttttttt",
"ttttttttttt&O@++++@@+*ttttttt,O@++O+@%;**:;+O++++++@++@+++O1ttttttttttttttttt",
"tttttttttttt&O@++@+++@-ttttttt*O++++++++O+++@++++@++@+++@Ootttttttttttttttttt",
"tttttttttttt3O+++++@++O=ttttttt*@O+++++++++++++++++++++++O8tttttttttttttttttt",
"ttttttttttttt1O++++++++O7ttttttt3&O++++++++++++++++++++@.9ttttttttttttttttttt",
"tttttttttttttt&O@+++++++o9tttttttt-&OO++++++++++++@+++++&tttttttttttttttttttt",
"tttttttttttttte@O@+++@+++O8ttttttttt3;@+OOOoO%=@+++++@++ttttttttttttttttttttt",
"ttttttttttttttt8@o@++++++@o&tttttttttt1:131qeq4++++++O&tttttttttttttttttttttt",
"tttttttttttttttt8o+++++++++O%7tttttttttttttttt@++@++O&ttttttttttttttttttttttt",
"ttttttttttttttttt8@+@++++@+@+O&qttttttttttttO+++++++3tttttttttttttttttttttttt",
"tttttttttttttttttt7OO+++++++++Oo@,8ttttr93@X++++++O>ttttttttttttttttttttttttt",
"ttttttttttttttttttt7++++@++@+++++OoO@OoXXO++++++O%3tttttttttttttttttttttttttt",
"tttttttttttttttttttt7&++++++++++++@++++@+@++++++&3ttttttttttttttttttttttttttt",
"tttttttttttttttttttttt&++++++@+++++++++++++++@@*ttttttttttttttttttttttttttttt",
"ttttttttttttttttttttttt:>++++++++@+++++++++@%1ttttttttttttttttttttttttttttttt",
"ttttttttttttttttttttttttt8%%+++++++%+++%@%%1ttttttttttttttttttttttttttttttttt",
"ttttttttttttttttttttttttttt9&+%@++OO+@*>3tttttttttttttttttttttttttttttttttttt",
"tttttttttttttttttttttttttttttttttt00ttttttttttttttttttttttttttttttttttttttttt",
"ttttttttttttttttttttttttttttttttttttttttttttttttttttttttttttttttttttttttttttt",
"ttttttttttttttttttttttttttttttttttttttttttttttttttttttttttttttttttttttttttttt",
"ttttttttttttttttttttttttttttttttttttttttttttttttttttttttttttttttttttttttttttt",
"ttttttttttttttttttttttttttttttttttttttttttttttttttttttttttttttttttttttttttttt",
"ttttttttttttttttttttttttttttttttttttttttttttttttttttttttttttttttttttttttttttt",
"ttttttttttttttttttttttttttttttttttttttttttttttttttttttttttttttttttttttttttttt",
"ttttttttttttttttttttttttttttttttttttttttttttttttttttttttttttttttttttttttttttt",
"ttttttttttttttttttttttttttttttttttttttttttttttttttttttttttttttttttttttttttttt"
};
